<svg width="50" height="50" viewBox="0 0 50 50" xmlns="http://www.w3.org/2000/svg">
  <defs>
    <linearGradient id="we" x1="0" y1="0" x2="1" y2="1"><stop offset="0%" stop-color="#22d3ee"/><stop offset="100%" stop-color="#0891b2"/></linearGradient>
    <linearGradient id="wt" x1="0" y1="0" x2="1" y2="1"><stop offset="0%" stop-color="#fbbf24"/><stop offset="100%" stop-color="#f59e0b"/></linearGradient>
  </defs>
  <rect x="2" y="2" width="46" height="46" rx="10" fill="#1a2744" stroke="#22d3ee" stroke-width="0.8"/>
  <circle cx="28" cy="16" r="8" fill="url(#wt)"/>
  <g stroke="#fbbf24" stroke-width="1.2" opacity="0.6">
    <line x1="28" y1="4" x2="28" y2="8"/><line x1="28" y1="24" x2="28" y2="28"/>
    <line x1="16" y1="16" x2="20" y2="16"/><line x1="36" y1="16" x2="40" y2="16"/>
    <line x1="20" y1="8" x2="23" y2="11"/><line x1="33" y1="21" x2="36" y2="24"/>
    <line x1="20" y1="24" x2="23" y2="21"/><line x1="33" y1="11" x2="36" y2="8"/>
  </g>
  <path d="M12,36 Q14,30 20,30 Q22,26 28,28 Q32,24 36,30 Q40,30 40,36 Z" fill="url(#we)" opacity="0.85"/>
  <text x="15" y="44" fill="white" font-family="monospace" font-size="7" font-weight="bold">25°</text>
  <circle cx="30" cy="40" r="5" fill="none" stroke="#22d3ee" stroke-width="1" opacity="0.5"/>
  <path d="M30,38 L30,42 M28,40 L32,40" stroke="#22d3ee" stroke-width="1" opacity="0.5"/>
</svg>
